<svg xmlns="http://www.w3.org/2000/svg" viewBox="0 0 64 64">
  <rect width="64" height="64" rx="14" fill="#eef7f1"/>
  <circle cx="32" cy="32" r="23" fill="#ffffff" stroke="#17211b" stroke-width="3"/>
  <path d="M32 16 43 24 39 37H25L21 24Z" fill="#17211b"/>
  <path d="M32 16V7M43 24l9-6M39 37l7 12M25 37l-7 12M21 24l-9-6" stroke="#17211b" stroke-width="3" stroke-linecap="round"/>
  <path d="M18 49c4 5 9 7 14 7s10-2 14-7M12 18c2-5 5-8 10-10M52 18c-2-5-5-8-10-10" fill="none" stroke="#17211b" stroke-width="3" stroke-linecap="round"/>
</svg>
